<mxfile host="app.diagrams.net" agent="Mozilla/5.0 (Windows NT 10.0; Win64; x64) AppleWebKit/537.36 (KHTML, like Gecko) Chrome/137.0.0.0 Safari/537.36" version="27.1.6">
  <diagram name="Page-1" id="ukmaq081sIkRnvvEt-1B">
    <mxGraphModel dx="1106" dy="605" grid="1" gridSize="10" guides="1" tooltips="1" connect="1" arrows="1" fold="1" page="1" pageScale="1" pageWidth="827" pageHeight="1169" math="0" shadow="0">
      <root>
        <mxCell id="0" />
        <mxCell id="1" parent="0" />
        <mxCell id="Spt6IvR1V8mImoM8i1_U-11" value="" style="edgeStyle=orthogonalEdgeStyle;rounded=0;orthogonalLoop=1;jettySize=auto;html=1;" edge="1" parent="1" source="Spt6IvR1V8mImoM8i1_U-2" target="Spt6IvR1V8mImoM8i1_U-10">
          <mxGeometry relative="1" as="geometry" />
        </mxCell>
        <mxCell id="Spt6IvR1V8mImoM8i1_U-15" value="" style="edgeStyle=orthogonalEdgeStyle;rounded=0;orthogonalLoop=1;jettySize=auto;html=1;" edge="1" parent="1" source="Spt6IvR1V8mImoM8i1_U-2" target="Spt6IvR1V8mImoM8i1_U-14">
          <mxGeometry relative="1" as="geometry" />
        </mxCell>
        <mxCell id="Spt6IvR1V8mImoM8i1_U-2" value="reddit data collection" style="rounded=0;whiteSpace=wrap;html=1;" vertex="1" parent="1">
          <mxGeometry x="330" y="130" width="120" height="60" as="geometry" />
        </mxCell>
        <mxCell id="Spt6IvR1V8mImoM8i1_U-3" value="ranking algorithm of post" style="rounded=0;whiteSpace=wrap;html=1;" vertex="1" parent="1">
          <mxGeometry x="330" y="320" width="120" height="60" as="geometry" />
        </mxCell>
        <mxCell id="Spt6IvR1V8mImoM8i1_U-9" value="" style="edgeStyle=orthogonalEdgeStyle;rounded=0;orthogonalLoop=1;jettySize=auto;html=1;" edge="1" parent="1" source="Spt6IvR1V8mImoM8i1_U-4" target="Spt6IvR1V8mImoM8i1_U-2">
          <mxGeometry relative="1" as="geometry" />
        </mxCell>
        <mxCell id="Spt6IvR1V8mImoM8i1_U-4" value="subreddit finder" style="rounded=0;whiteSpace=wrap;html=1;" vertex="1" parent="1">
          <mxGeometry x="330" y="40" width="120" height="60" as="geometry" />
        </mxCell>
        <mxCell id="Spt6IvR1V8mImoM8i1_U-12" value="" style="edgeStyle=orthogonalEdgeStyle;rounded=0;orthogonalLoop=1;jettySize=auto;html=1;" edge="1" parent="1" source="Spt6IvR1V8mImoM8i1_U-10" target="Spt6IvR1V8mImoM8i1_U-3">
          <mxGeometry relative="1" as="geometry" />
        </mxCell>
        <mxCell id="Spt6IvR1V8mImoM8i1_U-10" value="classification algorithm" style="rounded=0;whiteSpace=wrap;html=1;" vertex="1" parent="1">
          <mxGeometry x="330" y="220" width="120" height="60" as="geometry" />
        </mxCell>
        <mxCell id="Spt6IvR1V8mImoM8i1_U-14" value="raw reddit data store" style="shape=cylinder3;whiteSpace=wrap;html=1;boundedLbl=1;backgroundOutline=1;size=15;" vertex="1" parent="1">
          <mxGeometry x="560" y="120" width="60" height="80" as="geometry" />
        </mxCell>
        <mxCell id="Spt6IvR1V8mImoM8i1_U-17" value="SCHEMA:&lt;div&gt;table name1: RedditPostTable&lt;br&gt;1. PostId&lt;/div&gt;&lt;div&gt;2. Content&lt;br&gt;3. Type&lt;/div&gt;&lt;div&gt;4. mediapath&lt;/div&gt;&lt;div&gt;8. subreddit name&lt;/div&gt;&lt;div&gt;&lt;br&gt;&lt;/div&gt;&lt;div&gt;&lt;br&gt;&lt;/div&gt;&lt;div&gt;EngagmentTable&lt;/div&gt;&lt;div&gt;1. PostId&lt;/div&gt;&lt;div&gt;&lt;div&gt;7. upvote count&lt;/div&gt;&lt;div&gt;8. downvot count&lt;/div&gt;&lt;div&gt;9. date of posting&lt;/div&gt;&lt;div&gt;10. no. of views&lt;/div&gt;&lt;/div&gt;&lt;div&gt;5. comments&lt;/div&gt;&lt;div&gt;&lt;br&gt;&lt;/div&gt;&lt;div&gt;OpInfo&lt;/div&gt;&lt;div&gt;1. PostId&lt;/div&gt;&lt;div&gt;&lt;div&gt;&lt;span style=&quot;background-color: transparent; color: light-dark(rgb(0, 0, 0), rgb(255, 255, 255));&quot;&gt;11. op name&amp;nbsp;&lt;/span&gt;&lt;/div&gt;&lt;div&gt;12. op followers&lt;/div&gt;&lt;div&gt;&lt;br&gt;&lt;/div&gt;&lt;/div&gt;&lt;div&gt;&lt;br&gt;&lt;/div&gt;&lt;div&gt;&lt;br&gt;&lt;/div&gt;&lt;div&gt;&lt;br&gt;&lt;/div&gt;&lt;div&gt;&lt;br&gt;&lt;/div&gt;" style="text;html=1;align=center;verticalAlign=middle;whiteSpace=wrap;rounded=0;" vertex="1" parent="1">
          <mxGeometry x="580" y="30" width="240" height="330" as="geometry" />
        </mxCell>
      </root>
    </mxGraphModel>
  </diagram>
</mxfile>
